<?xml version="1.0" standalone="no"?>
<!DOCTYPE svg PUBLIC "-//W3C//DTD SVG 20010904//EN"
 "http://www.w3.org/TR/2001/REC-SVG-20010904/DTD/svg10.dtd">
<svg version="1.0" xmlns="http://www.w3.org/2000/svg"
 width="1024.000000pt" height="1024.000000pt" viewBox="0 0 1024.000000 1024.000000"
 preserveAspectRatio="xMidYMid meet">

<g transform="translate(0.000000,1024.000000) scale(0.100000,-0.100000)"
fill="#000000" stroke="none">
<path d="M2426 6484 c-3 -9 -6 -633 -6 -1388 0 -1054 3 -1375 12 -1384 9 -9
159 -12 613 -12 662 0 660 0 758 62 27 17 64 51 83 76 67 88 64 35 63 1191 0
575 -3 1054 -7 1063 -4 9 -83 95 -176 192 -130 134 -181 180 -217 196 -46 19
-66 20 -582 20 -479 0 -535 -2 -541 -16z m1119 -13 c43 -20 359 -331 383 -377
11 -22 13 -136 8 -658 -3 -347 -6 -647 -6 -666 0 -22 -3 -30 -8 -22 -7 10 -14
10 -35 -1 -15 -8 -25 -16 -22 -18 10 -10 -40 -7 -52 3 -8 6 -16 8 -20 5 -3 -4
-13 -1 -22 6 -14 10 -14 10 -4 -4 7 -9 10 -19 6 -22 -3 -4 -1 -7 5 -7 5 0 12
5 14 10 2 6 9 1 17 -11 11 -18 11 -21 -1 -17 -9 4 -14 -5 -16 -30 -2 -34 -20
-58 -32 -45 -3 3 1 8 8 10 6 3 12 14 11 26 0 21 -1 21 -9 2 -8 -19 -9 -18 -9
4 -1 20 -3 22 -16 11 -9 -7 -13 -20 -10 -28 8 -21 -5 -35 -20 -22 -12 10 -10
16 11 38 13 15 22 32 20 39 -3 6 0 14 7 17 9 3 8 5 -1 5 -7 1 -15 -6 -18 -14
-4 -8 -10 -12 -15 -9 -5 3 -9 -4 -9 -14 0 -30 -23 -44 -45 -28 -16 11 -21 11
-32 0 -7 -7 -12 -21 -12 -31 1 -17 2 -17 6 0 5 18 20 21 47 11 19 -7 9 -34
-13 -33 -10 0 -11 2 -3 6 6 2 9 9 6 15 -3 5 -14 2 -25 -8 -15 -14 -17 -20 -6
-32 8 -11 8 -14 0 -9 -6 4 -14 1 -16 -5 -3 -7 -6 -3 -6 10 -1 13 -5 20 -11 17
-6 -3 -10 -1 -10 5 0 7 7 10 18 6 15 -5 15 -4 2 6 -8 7 -15 19 -16 26 -2 28
-5 32 -19 32 -8 0 -14 -3 -13 -7 1 -5 -3 -18 -10 -30 -8 -14 -9 -24 -2 -28 5
-3 10 -1 10 6 0 7 2 10 5 7 3 -3 2 -13 -1 -23 -6 -15 -8 -16 -16 -1 -5 9 -14
16 -20 16 -7 0 -7 -4 0 -13 6 -7 9 -22 7 -32 -2 -11 -4 -23 -4 -28 -1 -4 -14
-1 -31 8 -27 14 -29 14 -23 -2 5 -12 3 -14 -7 -8 -8 5 -27 10 -43 12 -15 2
-37 8 -48 13 -16 9 -19 7 -19 -9 0 -11 8 -22 18 -24 13 -4 12 -5 -4 -6 -24 -1
-35 17 -29 48 2 11 1 20 -3 20 -20 -3 -23 3 -11 19 13 15 12 16 -4 3 -11 -8
-14 -18 -9 -25 14 -18 21 -55 11 -61 -5 -3 -17 -1 -28 5 -14 7 -22 7 -26 0 -4
-7 -21 -1 -43 16 -29 22 -33 23 -18 6 19 -22 19 -22 -10 -22 -16 0 -24 4 -18
8 9 5 9 10 -1 19 -7 7 -17 8 -26 2 -10 -6 -10 -9 -1 -9 6 0 12 -5 12 -11 0 -7
-10 -5 -26 6 -25 16 -25 16 -13 -7 l12 -23 -23 20 c-18 15 -22 16 -18 4 5 -13
-2 -16 -44 -16 -27 -1 -52 -4 -55 -7 -4 -3 140 -7 318 -8 l324 -3 -365 -6
c-201 -4 -372 -7 -380 -9 -17 -2 -26 -95 -10 -105 6 -4 10 -11 10 -17 0 -6 -7
-5 -17 3 -15 13 -15 12 -3 -11 13 -24 12 -24 -5 -10 -10 8 -16 10 -12 3 4 -6
2 -15 -3 -18 -8 -5 -5 -14 7 -28 17 -21 17 -21 0 -7 -15 11 -20 11 -26 1 -5
-7 -12 -13 -17 -14 -5 -1 -8 -5 -7 -8 1 -4 -8 -5 -20 -2 -22 5 -22 4 2 -16 13
-12 18 -21 13 -21 -6 0 -14 5 -17 10 -3 6 -11 10 -16 10 -6 0 -7 -5 -3 -12 4
-7 3 -8 -5 -4 -6 4 -11 13 -10 19 4 32 -1 35 -32 20 -16 -8 -33 -12 -36 -9 -4
3 -1 6 5 6 7 0 12 4 12 9 0 5 -11 8 -24 5 -15 -2 -26 2 -30 11 -3 8 -1 15 4
15 6 0 10 -5 10 -12 0 -9 3 -9 11 -1 6 6 18 9 25 6 8 -3 17 2 20 11 3 9 10 13
15 10 5 -3 6 2 3 10 -3 9 -10 16 -16 16 -5 0 -6 -4 -3 -10 3 -5 0 -10 -9 -10
-8 0 -23 -3 -33 -6 -15 -5 -15 -4 -3 5 11 8 12 11 2 11 -7 0 -10 5 -6 11 4 7
1 10 -6 7 -18 -6 -46 -88 -33 -97 10 -6 10 -29 -1 -57 -7 -18 -52 -18 -59 -1
-3 8 -1 20 4 28 5 8 9 11 10 7 1 -5 3 -12 4 -18 1 -5 3 -13 4 -16 0 -3 6 -2
11 1 8 5 7 12 -1 22 -10 11 -10 16 0 22 10 6 8 10 -5 15 -12 4 -25 -1 -38 -15
-12 -12 -15 -18 -7 -14 10 6 11 2 6 -15 -5 -15 -2 -26 6 -31 12 -8 12 -11 -1
-18 -15 -10 -33 -5 -26 8 3 4 -1 8 -9 8 -8 0 -12 -4 -9 -9 3 -4 -2 -8 -11 -8
-10 0 -13 5 -9 13 5 8 3 8 -9 -2 -19 -15 -12 -35 9 -27 7 3 16 1 19 -4 4 -7
13 -6 26 0 11 7 19 7 19 1 0 -5 11 -8 25 -7 13 2 22 -1 19 -6 -3 -5 -11 -8
-17 -7 -26 3 -48 -1 -43 -9 3 -5 -1 -9 -9 -9 -8 0 -12 4 -8 10 3 5 -11 7 -33
5 -41 -3 -52 9 -34 42 8 15 8 25 0 38 -8 11 -10 12 -7 2 2 -8 0 -26 -5 -40
-15 -38 -18 -242 -4 -259 8 -11 8 -13 -1 -8 -9 6 -13 -17 -16 -90 -1 -54 -4
521 -5 1278 -1 757 1 1379 5 1382 3 4 245 7 537 7 496 0 534 -2 571 -19z m382
-1773 c-3 -8 -6 -5 -6 6 -1 11 2 17 5 13 3 -3 4 -12 1 -19z m-72 4 c-13 -9
-17 -32 -6 -32 5 0 11 7 15 15 3 8 11 15 18 15 9 0 10 -3 2 -8 -6 -4 -13 -13
-16 -21 -8 -27 -33 -20 -34 10 -1 21 3 29 15 29 9 0 12 -3 6 -8z m-270 -62
c-3 -5 -11 -10 -16 -10 -6 0 -7 5 -4 10 3 6 11 10 16 10 6 0 7 -4 4 -10z m183
-95 c-3 -3 -9 2 -12 12 -6 14 -5 15 5 6 7 -7 10 -15 7 -18z m-98 11 c0 -3 -4
-8 -10 -11 -5 -3 -10 -1 -10 4 0 6 5 11 10 11 6 0 10 -2 10 -4z m-3 -61 c0 -8
-4 -12 -9 -9 -5 3 -6 10 -3 15 9 13 12 11 12 -6z m-12 -30 c30 -29 31 -45 4
-79 l-20 -26 -348 0 c-388 0 -391 0 -391 65 0 64 3 65 388 65 l343 0 24 -25z
m42 -47 c-3 -8 -6 -5 -6 6 -1 11 2 17 5 13 3 -3 4 -12 1 -19z m-771 -67 c-3
-5 1 -14 9 -21 17 -14 20 -30 4 -30 -5 0 -7 5 -4 11 4 6 -2 13 -14 16 -24 6
-29 33 -5 33 8 0 13 -4 10 -9z m447 -8 c-78 -2 -208 -2 -290 0 -81 1 -17 3
142 3 160 0 226 -2 148 -3z m245 0 c-15 -2 -42 -2 -60 0 -18 2 -6 4 27 4 33 0
48 -2 33 -4z m-628 -45 c0 -6 -3 -8 -7 -5 -3 4 -13 1 -21 -6 -13 -11 -14 -9
-2 10 14 22 30 22 30 1z m-390 -32 c0 -2 -7 -7 -16 -10 -8 -3 -12 -2 -9 4 6
10 25 14 25 6z m100 -10 c0 -2 -6 -9 -14 -15 -11 -9 -16 -9 -22 0 -4 7 -3 9 4
5 6 -3 13 -2 17 4 6 10 15 14 15 6z m183 -13 c-4 -10 -9 -11 -19 -2 -18 15
-18 15 5 15 11 0 17 -5 14 -13z m27 -23 c6 -11 8 -20 6 -20 -3 0 -10 9 -16 20
-6 11 -8 20 -6 20 3 0 10 -9 16 -20z m-173 -9 c0 -11 -4 -18 -8 -15 -4 2 -9
-1 -11 -8 -3 -8 -7 -6 -11 5 -4 11 -1 17 9 17 8 0 12 5 9 10 -3 6 -2 10 4 10
5 0 9 -9 8 -19z m56 -15 c4 -11 0 -11 -18 -2 -13 6 -21 14 -19 18 6 10 31 -1
37 -16z m-153 -16 c0 -5 -5 -10 -11 -10 -5 0 -7 5 -4 10 3 6 8 10 11 10 2 0 4
-4 4 -10z m67 -45 c0 -8 -4 -12 -9 -9 -5 3 -6 10 -3 15 9 13 12 11 12 -6z m69
-15 c0 -12 -4 -16 -9 -11 -5 5 -6 14 -3 20 10 15 12 14 12 -9z m-250 -13 c9
-19 7 -23 -8 -24 -10 -1 -16 2 -13 8 4 5 -3 9 -14 9 -21 0 -27 11 -14 23 14
14 38 6 49 -16z m-41 -36 c-3 -6 -11 -11 -16 -11 -5 0 -4 6 3 14 14 16 24 13
13 -3z m79 -14 c-3 -8 -12 -14 -21 -14 -13 0 -13 2 3 14 10 7 19 13 21 13 1 0
0 -6 -3 -13z m-86 -88 c-3 -8 -7 -3 -11 10 -4 17 -3 21 5 13 5 -5 8 -16 6 -23z
m70 -256 c-10 -2 -26 -2 -35 0 -10 3 -2 5 17 5 19 0 27 -2 18 -5z m195 0 c-13
-2 -33 -2 -45 0 -13 2 -3 4 22 4 25 0 35 -2 23 -4z m200 0 c-7 -2 -19 -2 -25
0 -7 3 -2 5 12 5 14 0 19 -2 13 -5z"/>
<path d="M3066 6215 c-84 -34 -126 -72 -165 -148 -60 -117 -45 -241 43 -356
38 -51 32 -29 -9 30 -142 208 -8 484 235 483 249 -1 387 -289 235 -488 -42
-56 -46 -69 -6 -24 58 67 76 115 76 208 0 102 -23 159 -96 232 -36 36 -61 51
-114 67 -86 27 -126 26 -199 -4z"/>
<path d="M3098 6057 c-77 -71 -13 -200 90 -183 68 11 105 73 82 140 -14 44
-48 66 -103 66 -32 0 -51 -6 -69 -23z m135 -7 c56 -44 40 -138 -27 -160 -69
-22 -131 20 -131 92 0 32 6 45 28 64 36 31 94 32 130 4z"/>
<path d="M3082 5789 c-44 -22 -92 -74 -92 -100 0 -8 8 0 19 16 24 40 49 61 94
80 89 37 199 -6 239 -95 5 -13 7 -12 7 2 1 26 -45 74 -92 97 -56 27 -120 27
-175 0z"/>
<path d="M2730 5453 c-51 -19 -68 -85 -30 -123 19 -19 33 -20 474 -20 250 0
462 3 471 6 26 10 46 59 36 87 -22 58 -16 57 -496 56 -242 0 -447 -3 -455 -6z
m928 -25 c17 -17 15 -68 -5 -90 -15 -17 -43 -18 -471 -18 -410 0 -457 2 -474
17 -20 18 -24 73 -6 91 17 17 939 17 956 0z"/>
<path d="M2824 5130 c-73 -3 -117 -10 -128 -19 -23 -19 -21 -76 4 -101 19 -19
33 -20 483 -20 452 0 464 0 485 20 27 26 28 67 2 100 l-19 25 -358 0 c-197 0
-408 -2 -469 -5z m846 -42 c13 -25 13 -31 0 -55 l-16 -28 -463 -3 c-421 -2
-466 -1 -483 14 -22 21 -24 67 -2 88 14 14 68 16 482 14 l466 -3 16 -27z"/>
<path d="M3795 4860 c-3 -5 1 -10 10 -10 9 0 13 5 10 10 -3 6 -8 10 -10 10 -2
0 -7 -4 -10 -10z"/>
<path d="M3876 4824 c-3 -9 -4 -19 -1 -22 3 -3 5 -1 5 5 0 5 7 10 15 10 19 0
19 -16 0 -23 -15 -6 -11 -24 4 -24 14 0 21 42 11 59 -8 14 -9 14 -10 1 0 -12
-2 -12 -9 -2 -6 11 -10 10 -15 -4z"/>
<path d="M2979 4812 c-238 -2 -268 -4 -282 -20 -28 -30 -30 -65 -7 -95 l21
-27 319 0 319 0 20 26 c27 34 26 57 -2 89 -27 32 -16 31 -388 27z m375 -28 c9
-8 16 -28 16 -44 0 -60 -1 -60 -340 -60 -339 0 -340 0 -340 60 0 60 1 60 340
60 267 0 311 -2 324 -16z"/>
<path d="M3840 4813 c5 -2 8 -9 5 -13 -3 -5 0 -12 6 -15 7 -5 10 -1 7 10 -1
10 -9 20 -16 21 -7 1 -8 0 -2 -3z"/>
<path d="M3806 4781 c-4 -6 -1 -11 6 -11 9 0 9 -3 -2 -10 -9 -6 -10 -10 -3
-10 17 0 23 14 14 29 -6 9 -11 10 -15 2z"/>
<path d="M3858 4763 c-10 -2 -18 -12 -17 -21 0 -11 2 -12 6 -4 2 6 13 12 24
12 10 0 19 5 19 10 0 10 -3 11 -32 3z"/>
<path d="M3405 4730 c-3 -6 1 -7 9 -4 18 7 21 14 7 14 -6 0 -13 -4 -16 -10z"/>
<path d="M3705 4720 c-3 -5 -1 -10 4 -10 6 0 11 5 11 10 0 6 -2 10 -4 10 -3 0
-8 -4 -11 -10z"/>
<path d="M3546 4688 c3 -5 10 -6 15 -3 13 9 11 12 -6 12 -8 0 -12 -4 -9 -9z"/>
<path d="M3765 4690 c3 -5 8 -10 11 -10 2 0 4 5 4 10 0 6 -5 10 -11 10 -5 0
-7 -4 -4 -10z"/>
<path d="M3514 4644 c3 -9 6 -18 6 -20 0 -2 4 -4 8 -4 4 0 8 9 9 20 1 12 -4
20 -14 20 -10 0 -13 -6 -9 -16z"/>
<path d="M3392 4608 c-1 -22 2 -38 8 -38 6 0 8 5 4 11 -4 7 -1 10 7 7 8 -3 15
-10 15 -16 1 -7 2 -15 3 -18 0 -3 15 4 31 16 24 17 30 18 30 6 0 -22 16 -28
31 -10 10 13 9 16 -8 20 -15 4 -19 12 -16 32 4 20 2 23 -6 12 -5 -8 -7 -18 -5
-22 5 -7 -11 -12 -29 -9 -5 1 -6 -3 -2 -9 12 -19 -7 -10 -25 13 -11 13 -15 26
-10 32 6 7 2 11 -8 11 -13 0 -18 -10 -20 -38z m28 -3 c11 -13 10 -14 -4 -9 -9
3 -16 10 -16 15 0 13 6 11 20 -6z"/>
<path d="M3450 4620 c0 -5 5 -10 11 -10 5 0 7 5 4 10 -3 6 -8 10 -11 10 -2 0
-4 -4 -4 -10z"/>
<path d="M3254 4609 c-7 -12 17 -32 26 -22 3 3 -1 8 -8 10 -6 3 -10 9 -6 14 3
5 3 9 0 9 -3 0 -8 -5 -12 -11z"/>
<path d="M3286 4572 c-4 -7 -13 -9 -19 -6 -8 5 -9 4 -2 -4 16 -16 47 -18 53
-3 3 8 0 11 -6 7 -6 -3 -12 -1 -14 6 -3 9 -6 9 -12 0z"/>
<path d="M2921 4533 c-5 -10 -12 -17 -15 -15 -3 1 -6 0 -6 -3 0 -3 0 -10 0
-16 0 -18 27 8 33 31 6 25 1 26 -12 3z"/>
<path d="M2785 4420 c3 -5 8 -10 11 -10 2 0 4 5 4 10 0 6 -5 10 -11 10 -5 0
-7 -4 -4 -10z"/>
<path d="M2833 4412 c-1 -11 5 -18 18 -18 12 0 19 7 19 18 0 11 -7 18 -18 18
-10 0 -18 -8 -19 -18z"/>
<path d="M2667 4403 c-10 -9 -9 -23 1 -23 5 0 9 7 9 15 0 17 -1 18 -10 8z"/>
<path d="M2708 4403 c7 -3 16 -2 19 1 4 3 -2 6 -13 5 -11 0 -14 -3 -6 -6z"/>
<path d="M2700 4375 c-11 -13 -10 -14 4 -9 9 3 16 10 16 15 0 13 -6 11 -20 -6z"/>
<path d="M2780 4376 c0 -2 7 -7 16 -10 8 -3 12 -2 9 4 -6 10 -25 14 -25 6z"/>
<path d="M2591 4353 c-7 -8 -11 -16 -8 -19 2 -2 10 2 17 11 17 20 9 27 -9 8z"/>
<path d="M2830 4351 c0 -19 -3 -20 -20 -9 -10 7 -23 9 -27 5 -9 -9 17 -28 29
-21 4 3 8 0 8 -7 0 -8 4 -8 15 1 17 14 20 36 5 45 -5 3 -10 -3 -10 -14z"/>
<path d="M2623 4331 c-5 -18 -10 -21 -30 -16 -20 5 -22 3 -12 -8 7 -7 19 -14
25 -14 14 0 38 46 29 55 -3 4 -8 -4 -12 -17z"/>
<path d="M2730 4305 c-7 -8 -9 -15 -6 -15 4 0 14 7 22 15 9 8 11 15 6 15 -5 0
-15 -7 -22 -15z"/>
<path d="M2228 6470 c-135 -23 -249 -81 -344 -175 -105 -105 -159 -219 -185
-395 l-11 -80 -104 0 -104 0 0 105 c0 100 1 106 23 115 54 23 97 85 97 143 0
145 -170 219 -271 118 -81 -81 -65 -206 32 -256 l29 -16 0 -130 c0 -125 1
-131 25 -154 23 -24 30 -25 145 -25 l120 0 0 -50 0 -50 -209 0 -209 0 -21 35
c-55 95 -200 101 -263 12 -34 -47 -37 -132 -6 -176 33 -49 69 -72 120 -78 57
-7 118 23 148 72 l22 35 209 0 209 0 0 -22 c0 -13 -36 -106 -80 -208 l-79
-185 -46 -3 c-42 -3 -51 1 -89 36 -58 54 -109 63 -174 30 -85 -42 -116 -130
-76 -215 55 -114 224 -112 279 4 16 34 25 42 48 43 25 0 27 -3 27 -40 0 -64
32 -90 112 -90 110 0 108 1 108 -101 l0 -89 -123 0 c-82 0 -127 -4 -135 -12
-8 -8 -12 -58 -12 -157 l0 -146 -35 -28 c-51 -41 -68 -80 -63 -144 4 -44 11
-60 39 -89 61 -62 147 -69 210 -17 85 72 76 198 -18 258 l-32 20 -1 113 0 112
84 0 83 0 6 -74 c9 -120 52 -192 142 -239 30 -16 63 -22 135 -24 156 -6 139
27 142 -263 3 -240 4 -250 25 -271 16 -16 33 -21 68 -21 26 1 53 7 61 13 20
16 21 2770 2 2768 -7 -1 -34 -5 -60 -9z m-754 -241 c30 -23 33 -45 10 -77 -18
-26 -60 -29 -86 -5 -37 34 -12 95 43 102 4 1 18 -8 33 -20z m-320 -621 c9 -12
16 -28 16 -36 0 -18 -46 -62 -65 -62 -22 0 -55 37 -55 62 0 53 74 79 104 36z
m874 -143 c31 -37 29 -80 -7 -116 -60 -59 -150 -22 -151 63 0 51 48 92 99 84
21 -3 45 -16 59 -31z m-712 -400 c27 -27 26 -59 -4 -82 -57 -45 -123 36 -72
87 27 27 46 25 76 -5z m216 -812 c37 -33 10 -103 -41 -103 -24 0 -51 31 -51
58 0 53 54 79 92 45z"/>
<path d="M4618 6212 c-36 -103 -107 -301 -157 -440 -50 -139 -91 -255 -91
-257 0 -3 43 -5 95 -5 53 0 95 4 95 9 0 6 14 49 31 96 l31 85 165 -2 166 -3
31 -90 31 -90 99 -3 c91 -3 98 -1 91 15 -4 10 -74 203 -155 428 -82 226 -151
418 -155 428 -6 15 -21 17 -109 17 l-101 0 -67 -188z m221 -173 c27 -79 52
-152 56 -161 7 -17 -2 -18 -108 -18 l-115 0 55 166 c30 91 57 163 59 161 3 -2
26 -69 53 -148z"/>
<path d="M5360 5955 l0 -445 90 0 90 0 0 445 0 445 -90 0 -90 0 0 -445z"/>
<path d="M5866 5285 c-126 -48 -180 -173 -123 -285 31 -63 94 -102 207 -130
111 -27 150 -55 150 -106 0 -46 -37 -84 -82 -85 -94 -3 -146 19 -168 71 -12
29 -14 30 -81 30 -65 0 -69 -1 -69 -22 1 -64 71 -151 148 -184 59 -25 168 -29
237 -9 192 55 222 301 47 389 -26 13 -80 31 -120 41 -122 29 -175 83 -139 139
41 62 160 55 202 -11 20 -31 22 -32 94 -33 73 0 73 0 67 25 -19 74 -58 125
-120 157 -53 28 -192 35 -250 13z"/>
<path d="M4390 4926 l0 -366 70 0 70 0 0 125 0 126 57 -3 57 -3 70 -122 70
-123 78 0 c43 0 78 2 78 5 0 3 -35 65 -77 137 -46 79 -73 133 -66 135 31 11
80 52 107 90 55 79 46 200 -21 274 -69 77 -93 84 -305 87 l-188 4 0 -366z
m333 220 c51 -21 72 -52 72 -103 0 -38 -5 -49 -33 -74 -31 -28 -36 -29 -132
-29 l-100 0 0 110 0 110 80 0 c46 0 95 -6 113 -14z"/>
<path d="M5090 4925 l0 -365 238 2 237 3 3 68 3 67 -171 0 -170 0 0 85 0 85
149 0 149 0 -1 63 -2 62 -147 3 -148 3 0 79 0 80 170 0 170 0 0 65 0 65 -240
0 -240 0 0 -365z"/>
<path d="M6382 5023 c3 -259 4 -270 27 -313 54 -103 130 -150 257 -158 140 -8
228 37 281 146 l28 57 3 268 3 267 -75 0 -76 0 0 -247 c0 -216 -2 -252 -18
-283 -23 -47 -71 -72 -133 -72 -55 0 -87 17 -123 66 -20 26 -21 43 -24 282
l-3 254 -75 0 -75 0 3 -267z"/>
<path d="M7140 4925 l0 -365 75 0 75 0 0 242 c0 141 4 238 9 233 5 -6 44 -85
87 -177 l77 -168 56 0 56 0 84 175 c46 96 87 175 90 175 3 0 7 -107 9 -238 l2
-237 70 -3 70 -3 0 366 0 365 -83 0 -83 0 -104 -214 c-58 -118 -107 -215 -110
-215 -3 -1 -12 14 -20 33 -8 19 -53 116 -100 215 l-85 181 -87 0 -88 0 0 -365z"/>
<path d="M8067 4928 l2 -363 236 -3 235 -2 0 70 0 70 -165 0 -165 0 0 85 0 85
150 0 151 0 -3 63 -3 62 -147 3 -148 3 0 79 0 80 165 0 165 0 0 65 0 65 -237
0 -238 0 2 -362z"/>
<path d="M4390 4014 l0 -346 193 4 c175 3 196 6 234 26 122 64 132 246 18 308
-19 10 -35 19 -35 20 0 1 18 19 39 41 94 94 49 246 -84 282 -22 6 -113 11
-202 11 l-163 0 0 -346z m329 206 c31 -16 45 -64 29 -96 -19 -41 -53 -54 -140
-54 l-78 0 0 80 0 80 86 0 c47 0 93 -4 103 -10z m37 -294 c21 -30 18 -89 -7
-112 -17 -15 -40 -20 -120 -22 l-99 -4 0 84 0 83 106 -5 c90 -4 108 -8 120
-24z"/>
<path d="M5052 4113 c3 -202 7 -255 20 -285 47 -105 127 -159 249 -166 97 -6
163 15 216 67 75 72 78 84 81 374 l3 257 -71 0 -70 0 0 -237 c0 -261 -2 -272
-59 -310 -62 -42 -153 -26 -200 33 -20 25 -21 38 -21 270 l0 244 -76 0 -76 0
4 -247z"/>
<path d="M5790 4015 l0 -345 70 0 70 0 0 345 0 345 -70 0 -70 0 0 -345z"/>
<path d="M6100 4015 l0 -345 221 2 221 3 2 58 1 57 -152 0 -153 0 0 285 0 285
-70 0 -70 0 0 -345z"/>
<path d="M6680 4015 l0 -345 133 0 c217 0 312 31 396 126 111 127 103 342 -18
463 -80 80 -157 101 -373 101 l-138 0 0 -345z m355 196 c81 -37 120 -111 113
-217 -5 -80 -41 -137 -111 -173 -40 -20 -63 -24 -135 -25 l-87 -1 -3 218 -2
217 92 0 c69 0 104 -5 133 -19z"/>
<path d="M7420 4015 l0 -345 230 0 230 0 0 60 0 60 -160 0 -160 0 0 85 0 85
140 0 140 0 0 60 0 60 -140 0 -140 0 0 75 0 74 156 3 156 3 1 63 2 62 -227 0
-228 0 0 -345z"/>
<path d="M8012 4018 l3 -343 73 -3 72 -3 0 116 0 115 53 0 54 0 70 -112 70
-113 76 -3 77 -3 -80 123 c-86 132 -85 125 -22 159 17 9 42 37 57 62 68 116
28 257 -90 320 -36 19 -59 22 -228 25 l-187 4 2 -344z m374 179 c17 -20 24
-40 24 -68 0 -84 -38 -109 -165 -109 l-85 0 0 106 0 106 101 -4 c96 -3 102 -4
125 -31z"/>
</g>
</svg>
